<svg xmlns="http://www.w3.org/2000/svg" xmlns:xlink="http://www.w3.org/1999/xlink" width="64" height="64" viewBox="0 0 64 64">
  <defs>
    <clipPath id="clip-Web_1920_1">
      <rect width="64" height="64"/>
    </clipPath>
  </defs>
  <g id="Web_1920_1" data-name="Web 1920 – 1" clip-path="url(#clip-Web_1920_1)">
    <g id="Subtraction_1" data-name="Subtraction 1" transform="translate(4 4)" fill="#c2fff1">
      <path d="M 27.99991035461426 54.99980163574219 C 24.67359161376953 54.99980163574219 21.4265308380127 54.40238189697266 18.34893035888672 53.22412109375 C 15.3756103515625 52.08579254150391 12.64677047729492 50.4410400390625 10.23821067810059 48.33555221557617 C 5.66070556640625 44.33403396606445 2.573025226593018 38.92398452758789 1.462172389030457 33.00040054321289 L 54.53762817382813 33.00040054321289 C 53.4267578125 38.92399597167969 50.33908843994141 44.33404922485352 45.76158905029297 48.33555221557617 C 43.35303115844727 50.4410514831543 40.62419128417969 52.08580017089844 37.65087127685547 53.22412109375 C 34.57329177856445 54.40238189697266 31.32624053955078 54.99980163574219 27.99991035461426 54.99980163574219 Z M 54.70554733276367 24.00020027160645 L 1.294252514839172 24.00020027160645 C 2.209608554840088 17.8415355682373 5.236012935638428 12.1848669052124 9.892910957336426 7.971840858459473 C 14.86244106292725 3.475980758666992 21.29296112060547 1.000000834465027 27.99991035461426 1.000000834465027 C 34.70685958862305 1.000000834465027 41.13738250732422 3.475980758666992 46.10689926147461 7.971840858459473 C 50.76379013061523 12.18485546112061 53.79019927978516 17.8414306640625 54.70554733276367 24.00020027160645 Z" stroke="none"/>
      <path d="M 27.99991035461426 53.99980163574219 C 31.20355987548828 53.99980163574219 34.3303108215332 53.42462158203125 37.29333114624023 52.29022216796875 C 40.15621185302734 51.19417953491211 42.78391265869141 49.61033248901367 45.10343933105469 47.58267211914063 C 49.20481491088867 43.99737548828125 52.06405258178711 39.23891830444336 53.30370712280273 34.00040054321289 L 2.696093797683716 34.00040054321289 C 3.935728549957275 39.23891067504883 6.794970989227295 43.99735641479492 10.89636039733887 47.58267211914063 C 13.21589088439941 49.61032104492188 15.84359073638916 51.19417190551758 18.70647048950195 52.29022979736328 C 21.66950035095215 53.42462158203125 24.7962703704834 53.99980163574219 27.99991035461426 53.99980163574219 M 55.83985900878906 27.00020027160645 L 55.84041595458984 25.00025939941406 L 55.83985900878906 27.00020027160645 M 53.51944732666016 23.00020027160645 C 52.45043182373047 17.51702880859375 49.6297607421875 12.50742816925049 45.43601226806641 8.713410377502441 C 40.65071105957031 4.384201049804688 34.45845031738281 2.000000715255737 27.99991035461426 2.000000715255737 C 21.5413703918457 2.000000715255737 15.34911060333252 4.384201049804688 10.56379127502441 8.713410377502441 C 6.370055675506592 12.50742244720459 3.549384593963623 17.51714134216309 2.480349063873291 23.00020027160645 L 53.51944732666016 23.00020027160645 M 27.99991035461426 55.99980163574219 C 24.5509204864502 55.99980163574219 21.18357086181641 55.38014221191406 17.99139022827148 54.15802001953125 C 14.90764045715332 52.97740936279297 12.07766056060791 51.27175903320313 9.580060958862305 49.08843994140625 C 4.530000686645508 44.67383193969727 1.228460788726807 38.60518264770508 0.2836408317089081 32.00040054321289 L 55.71615982055664 32.00040054321289 C 54.77120971679688 38.60599899291992 51.46932220458984 44.67425155639648 46.41974258422852 49.08843994140625 C 43.92216110229492 51.27175140380859 41.09218215942383 52.97740936279297 38.0084114074707 54.15802001953125 C 34.81624984741211 55.38014221191406 31.44891166687012 55.99980163574219 27.99991035461426 55.99980163574219 Z M 55.84096908569336 25.00020027160645 L 55.83985900878906 25.00020027160645 L 55.84096908569336 25.00020027160645 Z M 55.84096908569336 25.00020027160645 L 0.1588408201932907 25.00020027160645 C 0.8866108059883118 18.16940116882324 4.105660915374756 11.85898113250732 9.222030639648438 7.230280876159668 C 14.37577056884766 2.567760705947876 21.0445499420166 8.178710686479462e-07 27.99991035461426 8.178710686479462e-07 C 34.95527267456055 8.178710686479462e-07 41.62405014038086 2.567760705947876 46.77778244018555 7.230280876159668 C 51.89424133300781 11.8590612411499 55.11289978027344 18.16948127746582 55.84085083007813 24.99909019470215 L 55.84096908569336 25.00020027160645 Z" stroke="none" fill="#a3a3a3"/>
    </g>
    <g id="Polygon_1" data-name="Polygon 1" transform="translate(9 4)" fill="#ccffc2">
      <path d="M 44.45203018188477 50 L 1.547974824905396 50 L 23.00000190734863 2.432463645935059 L 44.45203018188477 50 Z" stroke="none"/>
      <path d="M 23.00000190734863 4.864902496337891 L 3.095939636230469 49 L 42.90406799316406 49 L 23.00000190734863 4.864902496337891 M 23.00000190734863 3.814697265625e-06 L 46 51 L 3.814697265625e-06 51 L 23.00000190734863 3.814697265625e-06 Z" stroke="none" fill="#a3a3a3"/>
    </g>
    <g id="Ellipse_2" data-name="Ellipse 2" transform="translate(50 50)" fill="#ffc2c2" stroke="#a3a3a3" stroke-width="2">
      <circle cx="5" cy="5" r="5" stroke="none"/>
      <circle cx="5" cy="5" r="4" fill="none"/>
    </g>
    <g id="Ellipse_3" data-name="Ellipse 3" transform="translate(4 50)" fill="#ffc2c2" stroke="#a3a3a3" stroke-width="2">
      <circle cx="5" cy="5" r="5" stroke="none"/>
      <circle cx="5" cy="5" r="4" fill="none"/>
    </g>
  </g>
</svg>
