<svg xmlns="http://www.w3.org/2000/svg" version="1" viewBox="0 0 100 100"><circle stroke="#000" stroke-width="2" stroke-linecap="round" stroke-linejoin="round" stroke-miterlimit="10" cx="17.998" cy="18" r="3"/><circle stroke="#000" stroke-width="2" stroke-linecap="round" stroke-linejoin="round" stroke-miterlimit="10" cx="33.998" cy="18" r="3"/><circle stroke="#000" stroke-width="2" stroke-linecap="round" stroke-linejoin="round" stroke-miterlimit="10" cx="49.997" cy="18.001" r="5.499"/><circle stroke="#000" stroke-width="2" stroke-linecap="round" stroke-linejoin="round" stroke-miterlimit="10" cx="65.999" cy="18" r="5.5"/><circle stroke="#000" stroke-width="2" stroke-linecap="round" stroke-linejoin="round" stroke-miterlimit="10" cx="81.999" cy="18.001" r="8.001"/><circle stroke="#000" stroke-width="2" stroke-linecap="round" stroke-linejoin="round" stroke-miterlimit="10" cx="17.998" cy="34" r="3"/><path stroke="#000" stroke-width="2" stroke-linecap="round" stroke-linejoin="round" stroke-miterlimit="10" d="M39.497 34.001a5.5 5.5 0 1 1-11-.004 5.5 5.5 0 0 1 11 .004z"/><circle stroke="#000" stroke-width="2" stroke-linecap="round" stroke-linejoin="round" stroke-miterlimit="10" cx="49.997" cy="34" r="5.499"/><path stroke="#000" stroke-width="2" stroke-linecap="round" stroke-linejoin="round" stroke-miterlimit="10" d="M73.997 34.001A8 8 0 1 1 58 33.996 8 8 0 0 1 73.997 34z"/><circle stroke="#000" stroke-width="2" stroke-linecap="round" stroke-linejoin="round" stroke-miterlimit="10" cx="82" cy="34" r="5.5"/><circle stroke="#000" stroke-width="2" stroke-linecap="round" stroke-linejoin="round" stroke-miterlimit="10" cx="17.997" cy="50" r="5.5"/><circle stroke="#000" stroke-width="2" stroke-linecap="round" stroke-linejoin="round" stroke-miterlimit="10" cx="33.997" cy="50" r="5.5"/><circle stroke="#000" stroke-width="2" stroke-linecap="round" stroke-linejoin="round" stroke-miterlimit="10" cx="49.998" cy="50" r="8"/><circle stroke="#000" stroke-width="2" stroke-linecap="round" stroke-linejoin="round" stroke-miterlimit="10" cx="65.999" cy="50" r="5.5"/><circle stroke="#000" stroke-width="2" stroke-linecap="round" stroke-linejoin="round" stroke-miterlimit="10" cx="82" cy="50" r="5.5"/><circle stroke="#000" stroke-width="2" stroke-linecap="round" stroke-linejoin="round" stroke-miterlimit="10" cx="17.997" cy="66" r="5.5"/><circle stroke="#000" stroke-width="2" stroke-linecap="round" stroke-linejoin="round" stroke-miterlimit="10" cx="33.998" cy="66" r="8"/><circle stroke="#000" stroke-width="2" stroke-linecap="round" stroke-linejoin="round" stroke-miterlimit="10" cx="49.997" cy="66" r="5.499"/><circle stroke="#000" stroke-width="2" stroke-linecap="round" stroke-linejoin="round" stroke-miterlimit="10" cx="65.999" cy="66" r="5.5"/><circle stroke="#000" stroke-width="2" stroke-linecap="round" stroke-linejoin="round" stroke-miterlimit="10" cx="81.999" cy="66" r="3"/><circle stroke="#000" stroke-width="2" stroke-linecap="round" stroke-linejoin="round" stroke-miterlimit="10" cx="17.999" cy="82" r="7.999"/><path stroke="#000" stroke-width="2" stroke-linecap="round" stroke-linejoin="round" stroke-miterlimit="10" d="M39.497 82a5.5 5.5 0 1 1-11-.004 5.5 5.5 0 0 1 11 .004z"/><circle stroke="#000" stroke-width="2" stroke-linecap="round" stroke-linejoin="round" stroke-miterlimit="10" cx="49.997" cy="82" r="5.499"/><circle stroke="#000" stroke-width="2" stroke-linecap="round" stroke-linejoin="round" stroke-miterlimit="10" cx="65.998" cy="82" r="3.001"/><circle stroke="#000" stroke-width="2" stroke-linecap="round" stroke-linejoin="round" stroke-miterlimit="10" cx="81.999" cy="82" r="3"/></svg>